<?xml version="1.0" encoding="UTF-8"?>
<svg version="1.1" xmlns="http://www.w3.org/2000/svg" width="821" height="309">
<path d="M0 0 C10.23 0 20.46 0 31 0 C29.17984981 9.10075095 26.76343457 18.11279716 23.71875 26.8828125 C22.89765856 29.30146228 22.16409808 31.73886449 21.4375 34.1875 C19.23676701 41.58377789 16.64358116 48.7301518 14 56 C30.335 56.495 30.335 56.495 47 57 C46.16687441 61.99875355 45.34505694 64.71772212 43 69 C42.34 69 41.68 69 41 69 C40.773125 69.5775 40.54625 70.155 40.3125 70.75 C36.9428793 76.52649262 30.88040252 78.53924217 25 81 C24.01 81.495 24.01 81.495 23 82 C21.62451844 82.08308638 20.24514204 82.10736016 18.8671875 82.09765625 C18.06152344 82.09443359 17.25585938 82.09121094 16.42578125 82.08789062 C15.16314453 82.07532227 15.16314453 82.07532227 13.875 82.0625 C13.02550781 82.05798828 12.17601562 82.05347656 11.30078125 82.04882812 C9.20049091 82.03702874 7.1002367 82.01909306 5 82 C4.84144531 82.66902344 4.68289063 83.33804688 4.51953125 84.02734375 C2.47002538 92.46315522 0.06283496 100.76907998 -2.42871094 109.08203125 C-2.92241655 110.73953182 -3.40377358 112.40070125 -3.8828125 114.0625 C-4.25019531 115.3309375 -4.25019531 115.3309375 -4.625 116.625 C-4.82351563 117.31851563 -5.02203125 118.01203125 -5.2265625 118.7265625 C-6.3014181 121.88598654 -7.68539062 124.93257811 -9 128 C14.1 128 37.2 128 61 128 C61.99 124.37 62.98 120.74 64 117 C65.5 112.4375 65.5 112.4375 66.24609375 110.2578125 C67.32909154 107.01443051 68.29091709 103.73772313 69.25390625 100.45703125 C70.11597262 97.61807969 71.05306464 94.81201414 72 92 C73.31452341 88.08400978 74.62619609 84.16706928 75.9375 80.25 C76.28490234 79.21617187 76.63230469 78.18234375 76.99023438 77.1171875 C78.90459895 71.39211982 80.73109451 65.65947864 82.38891602 59.85449219 C83 58 83 58 84 57 C85.65738443 56.90653085 87.31874644 56.88255023 88.97875977 56.88647461 C90.03978409 56.88655014 91.10080841 56.88662567 92.19398499 56.88670349 C93.348134 56.89186478 94.50228302 56.89702606 95.69140625 56.90234375 C96.86638168 56.9037587 98.04135712 56.90517365 99.25193787 56.90663147 C103.02215064 56.91225008 106.79230504 56.92480574 110.5625 56.9375 C113.11132727 56.9425126 115.66015547 56.94707592 118.20898438 56.95117188 C124.47267633 56.96222556 130.73633399 56.97898179 137 57 C136.28802995 61.46656391 135.3164534 65.71388425 134.0625 70.0625 C133.55396484 71.84333984 133.55396484 71.84333984 133.03515625 73.66015625 C132 77 132 77 131.00390625 79.4453125 C129.67506243 82.82688392 128.78236567 86.30065881 127.875 89.8125 C127.69324219 90.50537109 127.51148438 91.19824219 127.32421875 91.91210938 C126.87995492 93.60732661 126.4395801 95.30356222 126 97 C125.34 97 124.68 97 124 97 C123.8453125 98.9490625 123.8453125 98.9490625 123.6875 100.9375 C123.22632573 105.09456381 122.23581693 108.73913098 120.82421875 112.6640625 C119.65393464 115.98079188 118.70991302 119.35674584 117.74609375 122.73828125 C117 125 117 125 115 129 C133.15 129 151.3 129 170 129 C170 127.35 170 125.7 170 124 C170.61852139 122.31487285 171.2905071 120.64889116 172 119 C172.67012266 116.77801433 173.31414752 114.54805729 173.9375 112.3125 C176.14190711 104.48644502 178.42215602 96.71123835 181 89 C181.30679688 88.07960938 181.61359375 87.15921875 181.9296875 86.2109375 C184.28645833 79.140625 186.64322917 72.0703125 189 65 C189.34804688 63.93523437 189.69609375 62.87046875 190.0546875 61.7734375 C191 59 191 59 192 57 C209.16 57 226.32 57 244 57 C243.31125296 61.82122927 242.64695793 65.55620559 241.1875 70.0625 C238.98565702 77.00431041 236.98075686 83.99244842 235 91 C234.33470801 93.33372859 233.66744764 95.66688656 233 98 C233.88300781 97.23816406 234.76601563 96.47632813 235.67578125 95.69140625 C242.30950777 89.98029399 248.97410608 84.3296927 255.79296875 78.83984375 C257.97822558 77.08723326 257.97822558 77.08723326 259.67578125 75.25390625 C261 74 261 74 263 74 C263 73.34 263 72.68 263 72 C267.47058824 68 267.47058824 68 270 68 C270 67.34 270 66.68 270 66 C272.15812922 64.4225602 274.30252261 62.97985158 276.5625 61.5625 C277.47612305 60.96985352 277.47612305 60.96985352 278.40820312 60.36523438 C282.45845798 57.78935801 286.51750131 55.76116501 291 54 C291.94875 53.61585938 292.8975 53.23171875 293.875 52.8359375 C297.96478396 51.74192029 301.78420332 51.63195676 306 51.625 C307.17175781 51.58826172 307.17175781 51.58826172 308.3671875 51.55078125 C314.73228413 51.5186343 318.17160452 53.33868273 322.8515625 57.7421875 C324.56832447 61.11731817 324.44444926 64.42601946 324.375 68.125 C324.36629883 68.8869165 324.35759766 69.64883301 324.34863281 70.43383789 C324.19484157 76.36299464 323.25881548 81.49115888 321 87 C320.66355469 87.82757813 320.32710937 88.65515625 319.98046875 89.5078125 C319.29209217 91.19394839 318.60074528 92.87887508 317.90625 94.5625 C316.77618594 97.60198263 316.12540027 100.63271764 315.484375 103.8046875 C313.59343182 112.37492998 309.91283397 120.84406488 307 129 C322.84 128.67 338.68 128.34 355 128 C354.67 127.67 354.34 127.34 354 127 C352.73914607 110.56755938 357.26275583 97.30086142 365 83 C365.66 83 366.32 83 367 83 C367.3403125 82.1646875 367.3403125 82.1646875 367.6875 81.3125 C370.88459801 75.6795178 376.60396224 71.46632889 382 68 C382.66 68 383.32 68 384 68 C384 67.34 384 66.68 384 66 C395.65887834 60.33625548 407.33825718 56.83297956 420.28833008 56.88647461 C421.21564941 56.88632858 422.14296875 56.88618256 423.09838867 56.8860321 C426.15546021 56.88672731 429.21247039 56.89450136 432.26953125 56.90234375 C434.39230821 56.90420932 436.51508561 56.90563257 438.63786316 56.90663147 C444.21915887 56.91044567 449.80042846 56.92026661 455.38171387 56.93133545 C461.07934211 56.94157314 466.77697458 56.94613414 472.47460938 56.95117188 C483.64975104 56.96188985 494.82487335 56.97895313 506 57 C506.33 57.99 506.66 58.98 507 60 C506.34 60 505.68 60 505 60 C504.88269531 60.98355469 504.76539063 61.96710938 504.64453125 62.98046875 C504.03712496 67.21316509 502.91726232 71.22345941 501.6875 75.3125 C501.46602295 76.06015625 501.2445459 76.8078125 501.01635742 77.578125 C499.54675682 82.44620995 497.81757533 87.12400192 495.8359375 91.80859375 C494.71211906 94.75467853 494.10660824 97.72424795 493.484375 100.80859375 C492.83923958 103.72731124 491.9048325 106.49863659 490.92578125 109.3203125 C490.17372124 111.49716131 489.44587857 113.67819186 488.73046875 115.8671875 C488.50721924 116.54765137 488.28396973 117.22811523 488.05395508 117.92919922 C487.60535599 119.29741837 487.15854475 120.66622514 486.71362305 122.03564453 C485.11223714 126.88776286 485.11223714 126.88776286 484 128 C502.48 128.33 520.96 128.66 540 129 C540 136.19034883 538.32710657 138.34968418 533.75 143.5625 C525.46218649 150.90851652 516.70849125 154.42496782 505.6875 154.51171875 C504.83317383 154.52966995 503.97884766 154.54762115 503.09863281 154.56611633 C500.39913714 154.61982618 497.69981418 154.65398739 495 154.6875 C493.15752824 154.7207079 491.31507917 154.75520073 489.47265625 154.79101562 C484.98189631 154.87552943 480.49118408 154.94252656 476 155 C475.80083984 155.66966797 475.60167969 156.33933594 475.39648438 157.02929688 C474.99913086 158.36057617 474.99913086 158.36057617 474.59375 159.71875 C474.33271484 160.59466797 474.07167969 161.47058594 473.80273438 162.37304688 C473.07240073 164.76306818 472.30168578 167.13311816 471.5 169.5 C470.43525466 172.64987164 469.44458964 175.81200997 468.5 179 C466.2569699 186.54262452 463.68802611 193.9420979 460.96484375 201.32421875 C459.92756204 204.2008907 458.95677209 207.09566517 458 210 C454.02140322 210.17602413 450.04382194 210.28142668 446.0625 210.375 C444.94552734 210.42527344 443.82855469 210.47554687 442.67773438 210.52734375 C433.45838256 210.68956108 428.58861687 208.23278475 421.92211914 202.08325195 C416.96287812 197.19677251 414.95584589 191.834812 414 185 C414.1875 181.375 414.1875 181.375 415 178 C415.14953125 177.26910156 415.2990625 176.53820312 415.453125 175.78515625 C416.35829146 171.39801881 417.54820084 167.24173348 419 163 C419.87802153 160.41768388 420.75183429 157.8339613 421.625 155.25 C421.85445312 154.57839844 422.08390625 153.90679687 422.3203125 153.21484375 C423.57131391 149.68601393 423.57131391 149.68601393 424 146 C423.34 146 422.68 146 422 146 C422 146.66 422 147.32 422 148 C420.12890625 149.40234375 420.12890625 149.40234375 417.5625 150.9375 C416.73878906 151.44152344 415.91507813 151.94554687 415.06640625 152.46484375 C406.79292149 156.60685587 399.59705588 157.47357304 390.375 157.375 C389.281875 157.38660156 388.18875 157.39820313 387.0625 157.41015625 C378.75109173 157.37996954 373.0639243 156.32459758 366.75 150.5625 C366.10546875 149.98628906 365.4609375 149.41007813 364.796875 148.81640625 C360 143.9673913 360 143.9673913 360 141 C359.53851562 141.44730469 359.07703125 141.89460937 358.6015625 142.35546875 C350.26260787 150.08465792 342.04807964 154.14258932 330.68041992 154.16113281 C329.9498085 154.16609772 329.21919708 154.17106262 328.46644592 154.17617798 C326.05444387 154.19075746 323.64250759 154.19759468 321.23046875 154.203125 C319.54901631 154.20888009 317.86756387 154.21463777 316.18611145 154.22039795 C312.66142472 154.23089606 309.13676071 154.23674645 305.61206055 154.24023438 C301.10630103 154.24571546 296.60084424 154.26974018 292.09517956 154.29820633 C288.62151729 154.31687484 285.14792732 154.32204056 281.67421913 154.32357025 C280.01370909 154.32658799 278.35320005 154.33458673 276.69273949 154.34775543 C274.36418313 154.36490396 272.0363584 154.36291456 269.70776367 154.35644531 C269.02855865 154.3656601 268.34935364 154.37487488 267.64956665 154.3843689 C262.70052167 154.34152539 259.3635784 153.13637869 255 151 C255 150.34 255 149.68 255 149 C254.34 149 253.68 149 253 149 C253 148.01 253 147.02 253 146 C252.34 146 251.68 146 251 146 C249.55626125 134.93133624 253.4505775 125.50475911 257.18261719 115.26269531 C257.87358887 113.34993381 258.52351739 111.42242075 259.1640625 109.4921875 C260 107 260 107 261 105 C259.22750476 106.4354503 257.45706424 107.87343803 255.6875 109.3125 C254.70136719 110.11300781 253.71523438 110.91351563 252.69921875 111.73828125 C250.08926152 113.84442144 250.08926152 113.84442144 248.26953125 115.79296875 C247 117 247 117 245 117 C245 117.66 245 118.32 245 119 C243.42713316 120.41438406 241.78860004 121.75604401 240.125 123.0625 C235.22101822 126.97045961 230.5766617 131.06024465 225.99609375 135.34765625 C224 137 224 137 222 137 C222 137.66 222 138.32 222 139 C211.98423528 147.75949183 201.71067525 154.19429731 188.171875 154.09765625 C187.42286926 154.0962413 186.67386353 154.09482635 185.90216064 154.09336853 C183.51806588 154.08778659 181.13406622 154.07523745 178.75 154.0625 C177.13020969 154.05748266 175.51041791 154.05292016 173.890625 154.04882812 C169.92704688 154.03782308 165.96353955 154.02057091 162 154 C162 151.66666667 162 149.33333333 162 147 C161.32453125 147.42152344 160.6490625 147.84304687 159.953125 148.27734375 C158.61507812 149.09912109 158.61507812 149.09912109 157.25 149.9375 C156.36828125 150.48277344 155.4865625 151.02804688 154.578125 151.58984375 C150.00936489 154.08881708 145.81071477 154.15687162 140.68041992 154.17700195 C139.9498085 154.18357315 139.21919708 154.19014435 138.46644592 154.19691467 C136.05445238 154.21658583 133.6425209 154.2282959 131.23046875 154.23828125 C129.99136466 154.24439454 129.99136466 154.24439454 128.72722816 154.25063133 C124.35550819 154.27146488 119.98381937 154.28577878 115.61206055 154.29516602 C111.10621074 154.30622992 106.60085483 154.34063711 102.09517956 154.38033772 C98.62151698 154.40652819 95.14797176 154.41485995 91.67421913 154.41844749 C90.01369195 154.42330651 88.35316977 154.43490097 86.69273949 154.45348549 C84.36401954 154.47793177 82.03657364 154.47690268 79.70776367 154.4699707 C78.68895615 154.48918579 78.68895615 154.48918579 77.64956665 154.50878906 C71.72895692 154.44488342 67.49319448 152.38908306 63.22265625 148.296875 C62.1484375 146.86458333 61.07421875 145.43229167 60 144 C59.18208984 144.70576172 59.18208984 144.70576172 58.34765625 145.42578125 C57.59355469 146.04839844 56.83945312 146.67101562 56.0625 147.3125 C55.33160156 147.92738281 54.60070312 148.54226562 53.84765625 149.17578125 C47.10707974 153.4938186 40.23462979 154.44471569 32.36865234 154.38818359 C30.99366325 154.39606903 30.99366325 154.39606903 29.59089661 154.40411377 C26.58906546 154.41721747 23.58777315 154.40861143 20.5859375 154.3984375 C18.48564554 154.40046065 16.38535427 154.4033741 14.2850647 154.40713501 C9.89570387 154.41154502 5.50652687 154.40516863 1.1171875 154.39111328 C-4.4993581 154.37400116 -10.11547421 154.38388398 -15.73200417 154.40183067 C-20.06437398 154.4126862 -24.39664243 154.40921438 -28.72901535 154.4014473 C-30.79979885 154.39945129 -32.87059166 154.40188344 -34.94136429 154.40888596 C-37.8369705 154.41653184 -40.73188642 154.40485307 -43.62744141 154.38818359 C-44.47645523 154.39425629 -45.32546906 154.40032898 -46.20021057 154.40658569 C-51.5346743 154.34989101 -55.23098774 153.41499509 -60 151 C-60 150.34 -60 149.68 -60 149 C-60.99 148.67 -61.98 148.34 -63 148 C-63 147.01 -63 146.02 -63 145 C-63.66 145 -64.32 145 -65 145 C-65.43167307 137.34979388 -65.23471874 131.33216106 -62.01171875 124.33203125 C-60.71645153 121.3464153 -60.12790502 118.38952511 -59.4921875 115.2109375 C-58.813595 112.16265692 -57.80553509 109.26473706 -56.78515625 106.31640625 C-55.96361118 103.89264392 -55.22456191 101.45440605 -54.5 99 C-50.84615385 86.69230769 -50.84615385 86.69230769 -49 83 C-55.6 83 -62.2 83 -69 83 C-67.8780083 75.14605809 -67.8780083 75.14605809 -66.125 71.0625 C-64.7935133 67.92057455 -63.58244565 64.79794194 -62.5 61.5625 C-60.46666667 56.73333333 -60.46666667 56.73333333 -57 55 C-54.88759579 54.24043338 -52.76002492 53.54855474 -50.62109375 52.8671875 C-27.00624194 45.0542261 -15.44934915 29.24643302 -4.09375 8.20703125 C-2.89579206 5.91722623 -2.89579206 5.91722623 -2 3 C-1.34 3 -0.68 3 0 3 C0 2.01 0 1.02 0 0 Z M420 82 C419.01 85.3 418.02 88.6 417 92 C416.16694067 94.44479429 415.31508166 96.88333196 414.4375 99.3125 C414.02371094 100.46363281 413.60992188 101.61476563 413.18359375 102.80078125 C412.4646866 104.74396591 411.7042741 106.67331365 410.87109375 108.5703125 C409.30071939 112.95045982 409.42040779 117.41980792 410 122 C412.15130281 125.15012197 414.5324666 126.53713435 418 128 C420.0742625 128.28480806 422.16071439 128.48874224 424.25 128.625 C425.32765625 128.69976562 426.4053125 128.77453125 427.515625 128.8515625 C428.33546875 128.90054688 429.1553125 128.94953125 430 129 C430.33773438 127.90300781 430.67546875 126.80601562 431.0234375 125.67578125 C431.47385102 124.22132093 431.92437784 122.76689569 432.375 121.3125 C432.70757813 120.2306543 432.70757813 120.2306543 433.046875 119.12695312 C433.9922044 116.08243637 434.95463003 113.11158561 436.15625 110.15625 C437.13649108 107.65118946 437.1523744 105.66655204 437 103 C437.66 103 438.32 103 439 103 C439.33 100.03 439.66 97.06 440 94 C440.66 94 441.32 94 442 94 C442.19916016 93.07767578 442.19916016 93.07767578 442.40234375 92.13671875 C442.57894531 91.32847656 442.75554687 90.52023438 442.9375 89.6875 C443.11152344 88.88699219 443.28554688 88.08648437 443.46484375 87.26171875 C444 85 444 85 445 82 C436.75 82 428.5 82 420 82 Z " fill="#000000" transform="translate(281,84)"/>
<path d="M0 0 C1.45702511 0.01004845 2.91405691 0.01917101 4.37109375 0.02734375 C7.91436539 0.04749888 11.45669381 0.08667097 15 0.125 C15 8.375 15 16.625 15 25.125 C9.555 25.62 9.555 25.62 4 26.125 C-2.37651383 27.53280175 -7.63124977 29.81342746 -13.3125 33 C-13.89942627 33.32750244 -14.48635254 33.65500488 -15.09106445 33.99243164 C-24.16737976 39.29980151 -30.63448547 48.04534374 -36.0625 56.875 C-36.4965918 57.57963379 -36.93068359 58.28426758 -37.37792969 59.01025391 C-45.35961243 72.15991106 -50.037322 86.55765707 -53.9375 101.375 C-56.00655711 108.85142484 -59.36227424 115.30531923 -63 122.125 C-63.72703125 123.6409375 -63.72703125 123.6409375 -64.46875 125.1875 C-66.06050018 128.24106158 -67.87530903 130.87013452 -69.9375 133.625 C-72.10252207 136.54066841 -74.24693042 139.43008254 -76.1875 142.5 C-78.19915079 145.41342529 -80.47650889 147.64150658 -83 150.125 C-83.85980469 151.00800781 -84.71960938 151.89101562 -85.60546875 152.80078125 C-86.45753906 153.67089844 -87.30960938 154.54101562 -88.1875 155.4375 C-89.04730469 156.32050781 -89.90710938 157.20351562 -90.79296875 158.11328125 C-93 160.125 -93 160.125 -95 160.125 C-95 160.785 -95 161.445 -95 162.125 C-99.47058824 166.125 -99.47058824 166.125 -102 166.125 C-102 166.785 -102 167.445 -102 168.125 C-103.44946289 169.37426758 -103.44946289 169.37426758 -105.47265625 170.76953125 C-106.20806641 171.28193359 -106.94347656 171.79433594 -107.70117188 172.32226562 C-108.48041016 172.85529297 -109.25964844 173.38832031 -110.0625 173.9375 C-111.57431593 174.98553692 -113.08603569 176.03371257 -114.59765625 177.08203125 C-115.34031738 177.59306396 -116.08297852 178.10409668 -116.84814453 178.63061523 C-118.83254608 180.00870939 -120.79141898 181.41616221 -122.74609375 182.8359375 C-125.45210444 184.73956567 -128.08382801 186.3906203 -131 187.9375 C-131.94488281 188.44023437 -132.88976562 188.94296875 -133.86328125 189.4609375 C-135.41595703 190.28464844 -135.41595703 190.28464844 -137 191.125 C-138.14855469 191.75664062 -139.29710937 192.38828125 -140.48046875 193.0390625 C-153.87535585 200.38257032 -167.74353422 206.22925543 -182.09472656 211.4296875 C-183.91975642 212.09571582 -185.73743377 212.78178815 -187.5546875 213.46875 C-195.05313053 216.25728664 -202.53677397 218.38750442 -210.30859375 220.23046875 C-213.90487076 221.10194752 -217.44792667 222.08950909 -221 223.125 C-230.81292186 225.89506835 -239.63735277 226.125 -250 226.125 C-250 216.555 -250 206.985 -250 197.125 C-247.03 196.795 -244.06 196.465 -241 196.125 C-237.63748012 195.58763527 -234.32538978 194.85675895 -231 194.125 C-230.03900391 193.91786377 -230.03900391 193.91786377 -229.05859375 193.70654297 C-220.36797603 191.81997471 -212.14525466 189.75997186 -204 186.125 C-202.84757812 185.66738281 -201.69515625 185.20976562 -200.5078125 184.73828125 C-192.56343501 181.53304245 -185.25534289 177.6856231 -178 173.125 C-177.22342041 172.63902344 -176.44684082 172.15304688 -175.64672852 171.65234375 C-170.92506278 168.60774467 -166.737078 165.27960613 -162.62890625 161.4453125 C-161 160.125 -161 160.125 -159 160.125 C-159 159.465 -159 158.805 -159 158.125 C-157.95275193 157.20711787 -156.85862043 156.34273179 -155.75 155.5 C-138.05163723 140.4375636 -127.82406627 117.29630386 -120.4375 95.8125 C-117.9222298 88.54710805 -114.54859348 81.93215768 -111 75.125 C-110.30924735 73.70991644 -109.62113234 72.29353711 -108.9375 70.875 C-106.57222381 66.16492619 -104.07357324 61.41043926 -101 57.125 C-100.34 57.125 -99.68 57.125 -99 57.125 C-98.62875 56.073125 -98.62875 56.073125 -98.25 55 C-95.80533743 49.37727608 -92.34698916 45.36848942 -88 41.125 C-87.03318862 39.98631104 -86.07530641 38.83999926 -85.125 37.6875 C-82.10836653 34.12380864 -78.82960616 30.81954248 -75 28.125 C-74.34 28.125 -73.68 28.125 -73 28.125 C-73 27.465 -73 26.805 -73 26.125 C-67.58823529 22.125 -67.58823529 22.125 -65 22.125 C-65 21.465 -65 20.805 -65 20.125 C-53.19861928 11.28062438 -38.10305528 6.04023773 -24 2.125 C-22.906875 1.76792969 -21.81375 1.41085938 -20.6875 1.04296875 C-13.97510632 -0.61856949 -6.86889319 -0.08260752 0 0 Z " fill="#000000" transform="translate(251,20.875)"/>
<path d="M0 0 C1.39653809 0.01244751 1.39653809 0.01244751 2.82128906 0.02514648 C14.96796966 0.324867 22.74560799 4.7984361 31.4140625 13.1640625 C38.63174423 20.95062555 39.31818194 29.14377513 38.96875 39.3671875 C38.40030332 48.26337804 33.89797898 54.35711248 27.625 60.4375 C23.98699095 63.4375 23.98699095 63.4375 21.625 63.4375 C21.625 64.0975 21.625 64.7575 21.625 65.4375 C11.3564715 70.92996873 -2.50178616 71.25094264 -13.80078125 68.6484375 C-16.12814053 67.72314443 -18.22500412 66.71550184 -20.375 65.4375 C-21.40625 64.90125 -22.4375 64.365 -23.5 63.8125 C-24.11875 63.35875 -24.7375 62.905 -25.375 62.4375 C-25.375 61.7775 -25.375 61.1175 -25.375 60.4375 C-26.014375 60.169375 -26.65375 59.90125 -27.3125 59.625 C-29.375 58.4375 -29.375 58.4375 -30.375 55.4375 C-31.035 55.4375 -31.695 55.4375 -32.375 55.4375 C-32.705 54.1175 -33.035 52.7975 -33.375 51.4375 C-34.035 51.4375 -34.695 51.4375 -35.375 51.4375 C-39.60963546 43.14467223 -39.82261096 32.56904758 -37.6953125 23.55859375 C-36.875 21.375 -36.875 21.375 -35.375 18.4375 C-34.715 18.4375 -34.055 18.4375 -33.375 18.4375 C-33.045 17.1175 -32.715 15.7975 -32.375 14.4375 C-31.715 14.4375 -31.055 14.4375 -30.375 14.4375 C-30.14039063 13.85097656 -29.90578125 13.26445313 -29.6640625 12.66015625 C-28.07190669 9.91489366 -26.35390869 8.67677583 -23.75 6.875 C-22.93273437 6.29621094 -22.11546875 5.71742187 -21.2734375 5.12109375 C-14.22290436 1.0257032 -8.12412802 -0.09288479 0 0 Z " fill="#000000" transform="translate(400.375,48.5625)"/>
</svg>
