<?xml version="1.0" encoding="UTF-8"?>
<svg version="1.1" xmlns="http://www.w3.org/2000/svg" width="1080" height="1080">
<path d="M0 0 C0 32.67 0 65.34 0 99 C-7.92 99 -15.84 99 -24 99 C-65.16937843 103.32164746 -104.5086942 118.87334917 -136.38476562 145.64501953 C-138.00920822 147.00772455 -139.65169573 148.34603782 -141.296875 149.68359375 C-155.46451481 161.35927257 -168.78550355 174.45488242 -180 189 C-180.89741094 190.08893982 -181.79872765 191.17466811 -182.703125 192.2578125 C-201.14165307 214.49007461 -215.63957561 239.75557108 -228.68945312 265.43017578 C-229.81501131 267.6372595 -230.95693846 269.8342323 -232.109375 272.02734375 C-243.26802837 293.47296942 -251.97328155 316.23259518 -260 339 C-260.58249512 340.6387207 -260.58249512 340.6387207 -261.17675781 342.31054688 C-267.15344629 359.25194978 -272.18081933 376.40404557 -277.0625 393.6875 C-284.55362872 420.1846155 -292.73981825 445.81852239 -304 471 C-304.57186035 472.29043213 -304.57186035 472.29043213 -305.15527344 473.60693359 C-311.2324069 487.22724753 -318.4962411 500.12235056 -326 513 C-326.5043457 513.87333984 -327.00869141 514.74667969 -327.52832031 515.64648438 C-342.24093919 541.0706667 -359.81547897 564.76969756 -378.86132812 587.10742188 C-381.824279 590.58673763 -384.70856825 594.11756417 -387.5625 597.6875 C-391.25618275 602.23357108 -395.22419486 606.36029505 -399.4453125 610.41796875 C-401.45924665 612.45345877 -403.32116339 614.50353031 -405.18359375 616.671875 C-409.53967996 621.69772122 -414.22589632 626.37210383 -418.9375 631.0625 C-419.79279297 631.92166016 -420.64808594 632.78082031 -421.52929688 633.66601562 C-425.94214923 638.07213594 -430.41775916 642.33025529 -435.14819336 646.39331055 C-438.11629845 648.96853791 -440.95446362 651.67908953 -443.8125 654.375 C-448.78318955 659.02639178 -453.86221192 663.4515005 -459.1796875 667.70703125 C-461.79658233 669.83461749 -464.3445157 672.01989766 -466.88598633 674.23583984 C-474.6139944 680.9646207 -482.65681054 687.20038862 -490.83984375 693.36328125 C-492.95689463 694.96733969 -495.05880392 696.58916524 -497.15625 698.21875 C-523.75564834 718.85697155 -552.10773928 737.72314197 -581 755 C-582.09634766 755.65564941 -583.19269531 756.31129883 -584.32226562 756.98681641 C-599.80945211 766.22636841 -615.4378829 775.14832365 -631.37011719 783.60351562 C-633.73280031 784.85811528 -636.08984822 786.12254482 -638.4453125 787.390625 C-643.27196283 789.97587861 -648.12987025 792.49772026 -653 795 C-653.59472107 795.30572937 -654.18944214 795.61145874 -654.80218506 795.92645264 C-677.2108026 807.43202243 -699.88189307 818.11772004 -722.99517822 828.12878418 C-726.01615743 829.44158161 -729.02903499 830.77268582 -732.04296875 832.1015625 C-764.40888825 846.28161627 -797.52670429 858.70391893 -831 870 C-831.79794983 870.26963562 -832.59589966 870.53927124 -833.41802979 870.81707764 C-858.72143143 879.35233765 -884.19313379 887.13231224 -910 894 C-910.8621814 894.22945312 -911.72436279 894.45890625 -912.6126709 894.6953125 C-948.38233447 904.17900696 -984.43477704 912.07989987 -1021.0625 917.4375 C-1022.2917067 917.6175206 -1022.2917067 917.6175206 -1023.54574585 917.80117798 C-1032.40549041 919.08328044 -1041.28293737 920.20195457 -1050.18359375 921.16015625 C-1050.9303688 921.24575302 -1051.67714386 921.33134979 -1052.44654846 921.41954041 C-1060.38219326 922.23006037 -1067.88194902 922 -1076 922 C-1076 886.36 -1076 850.72 -1076 814 C-1073.4085115 812.70425575 -1071.25497604 812.68465742 -1068.359375 812.45703125 C-984.83865864 805.41772544 -903.78427159 781.40150467 -789 722 C-788.14100098 721.47422363 -787.28200195 720.94844727 -786.39697266 720.40673828 C-764.67947349 707.04308925 -743.47121296 692.49360618 -724 676 C-722.93394525 675.10765282 -721.86751885 674.21574952 -720.80078125 673.32421875 C-714.94935827 668.41946237 -709.17811562 663.44235543 -703.53417969 658.29858398 C-701.95469539 656.86593999 -700.36813556 655.44101105 -698.77099609 654.02807617 C-692.41886421 648.39762488 -686.36350823 642.51831339 -680.3762207 636.5065918 C-678.8072764 634.93225845 -677.23301442 633.36338411 -675.65820312 631.79492188 C-670.22846049 626.36913063 -664.96209562 620.86135941 -660 615 C-659.02723275 613.88177523 -658.05330654 612.76455744 -657.078125 611.6484375 C-630.03498518 580.43139138 -606.79162705 546.14045304 -587.42773438 509.67480469 C-586.06911024 507.12947534 -584.68641202 504.59886417 -583.296875 502.0703125 C-568.41162825 474.70540549 -557.30424878 445.48630086 -546.8515625 416.203125 C-524.80580164 354.45474448 -497.51865659 293.05115814 -460 239 C-459.2584668 237.92468018 -459.2584668 237.92468018 -458.50195312 236.82763672 C-447.8883211 221.44901645 -437.02518909 206.31471909 -425 192 C-424.5683252 191.4834082 -424.13665039 190.96681641 -423.69189453 190.43457031 C-418.33063993 184.02085785 -412.89959685 177.68912489 -407.265625 171.51171875 C-406.04404772 170.15745291 -404.82835686 168.79718853 -403.65014648 167.4050293 C-398.2197187 161.02900882 -392.30411079 155.15285664 -386.37573242 149.24536133 C-384.56639067 147.44137915 -382.76245681 145.63211335 -380.95898438 143.82226562 C-375.14178832 138.00141338 -369.29657317 132.30689237 -363 127 C-361.91632065 126.05135858 -360.83424448 125.10088214 -359.75390625 124.1484375 C-350.81121147 116.34792574 -341.52386899 109.07589123 -332 102 C-331.26201172 101.45166504 -330.52402344 100.90333008 -329.76367188 100.33837891 C-251.679351 42.58922327 -159.07656247 10.90378941 -58.19784546 1.45175171 C-56.760416 1.32345103 -55.32336145 1.19082079 -53.88687134 1.05239868 C-35.92984288 -0.64809717 -18.08360237 0 0 0 Z " fill="#000000" transform="translate(1078,79)"/>
</svg>
