<?xml version="1.0" encoding="UTF-8"?>
<svg version="1.1" xmlns="http://www.w3.org/2000/svg" width="1080" height="1080">
<path d="M0 0 C356.4 0 712.8 0 1080 0 C1080 356.4 1080 712.8 1080 1080 C723.6 1080 367.2 1080 0 1080 C0 723.6 0 367.2 0 0 Z " fill="#FE0000" transform="translate(0,0)"/>
<path d="M0 0 C0 18.15 0 36.3 0 55 C-10.395 55.495 -10.395 55.495 -21 56 C-60.86940947 63.72469809 -91.69522735 89.14960103 -114.0625 122.25 C-136.40124953 156.09885507 -149.29328941 193.72823873 -160.1418457 232.48803711 C-162.82396221 242.01458263 -165.46596335 251.16019965 -170 260 C-170.84177711 261.82153146 -171.6775232 263.64585981 -172.5078125 265.47265625 C-183.22755371 288.51143023 -196.52460333 309.61883987 -213 329 C-213.7734375 329.95777344 -214.546875 330.91554688 -215.34375 331.90234375 C-222.30068452 340.41230693 -229.98504812 348.17339262 -237.75 355.9375 C-238.29333984 356.48174622 -238.83667969 357.02599243 -239.39648438 357.58673096 C-245.41623836 363.60535034 -251.48084697 369.51743387 -258 375 C-258.63228516 375.53906982 -259.26457031 376.07813965 -259.91601562 376.63354492 C-269.86096505 385.07157071 -280.13165403 392.9223482 -290.79003906 400.43408203 C-292.94260927 401.9593345 -295.07847154 403.50539616 -297.2109375 405.05859375 C-307.02106106 412.163111 -317.17415605 418.49775291 -327.62890625 424.60791016 C-329.7833287 425.87279039 -331.9251815 427.15571783 -334.0625 428.44921875 C-373.8345686 452.41742292 -416.5309012 471.61668066 -460.3125 487 C-461.02704346 487.25144775 -461.74158691 487.50289551 -462.4777832 487.76196289 C-468.51126634 489.86567764 -474.58917949 491.79639371 -480.69921875 493.6640625 C-483.73747153 494.59663045 -486.7556342 495.57748984 -489.76953125 496.5859375 C-515.54583759 505.14853039 -541.80192486 510.86157803 -568.54174805 515.40356445 C-571.70353367 515.94886924 -574.85528582 516.53285945 -578.0078125 517.12890625 C-582.02669479 517.86578213 -585.97841638 518.32926558 -590.0625 518.5625 C-594.18703502 518.6999639 -594.18703502 518.6999639 -598 520 C-601.3 520 -604.6 520 -608 520 C-608 499.87 -608 479.74 -608 459 C-600.74 458.34 -593.48 457.68 -586 457 C-580.88749199 456.19170823 -575.87347537 455.34390963 -570.8125 454.3125 C-569.85274261 454.12182953 -569.85274261 454.12182953 -568.87359619 453.92730713 C-548.4643342 449.87099056 -527.05352054 445.50603596 -508 437 C-506.20980339 436.3293958 -504.41787465 435.66341118 -502.625 435 C-450.3859581 414.90806081 -399.40041489 382.99913426 -365 338 C-363.92934885 336.66614711 -362.85620803 335.33429065 -361.78125 334.00390625 C-343.58257908 311.31579486 -329.123077 285.85957914 -318 259 C-317.59394531 258.02933594 -317.18789063 257.05867188 -316.76953125 256.05859375 C-314.33767841 250.10474714 -312.17084531 244.05282752 -310 238 C-308.67992261 234.32836775 -307.34556597 230.66236752 -306 227 C-305.67773438 226.10796875 -305.35546875 225.2159375 -305.0234375 224.296875 C-292.271407 189.98565624 -275.48701774 156.67471839 -254 127 C-253.29109619 126.01507568 -253.29109619 126.01507568 -252.56787109 125.01025391 C-245.2321898 114.86766418 -237.35826072 105.31320026 -229 96 C-228.47873535 95.41557129 -227.9574707 94.83114258 -227.42041016 94.22900391 C-220.9765322 87.02535859 -214.3345378 80.31286464 -207 74 C-205.96526261 73.08041995 -204.93145973 72.15978763 -203.8984375 71.23828125 C-188.84679904 57.92591384 -172.44396246 46.92556814 -155 37 C-153.91984619 36.3814917 -153.91984619 36.3814917 -152.81787109 35.75048828 C-132.04322979 23.96604263 -109.45592576 15.94680851 -86.4375 9.8125 C-85.55263916 9.57442627 -84.66777832 9.33635254 -83.75610352 9.09106445 C-70.0654519 5.55595457 -56.10193752 3.5787016 -42.06298828 2.06469727 C-39.76307216 1.81392533 -37.46573824 1.54503934 -35.16796875 1.27539062 C-23.24105849 -0.03021789 -12.17596878 0 0 0 Z " fill="#FEFEFE" transform="translate(844,280)"/>
</svg>
